<?xml version="1.0" encoding="utf-8"?>
<!-- Generator: Adobe Illustrator 18.1.0, SVG Export Plug-In . SVG Version: 6.00 Build 0)  -->
<!DOCTYPE svg PUBLIC "-//W3C//DTD SVG 1.1//EN" "http://www.w3.org/Graphics/SVG/1.1/DTD/svg11.dtd">
<svg version="1.1" id="Layer_1" xmlns="http://www.w3.org/2000/svg" xmlns:xlink="http://www.w3.org/1999/xlink" x="0px" y="0px"
	 viewBox="216 0 287.9 288" enable-background="new 216 0 287.9 288" xml:space="preserve">
<path fill="#325C80" d="M216,144C216,64.5,280.4,0,359.9,0s144,64.5,144,144s-64.5,144-144,144C280.4,287.9,216,223.5,216,144"/>
<path fill="#FFFFFF" d="M374.4,164.7c7.9-32.1,6.8-58-0.4-61.1h-0.1l-0.6,4.8h0.1c5.5,1.3,4.3,34-1.3,57
	c-5.6,22.9-19.9,52-24.9,49.4l-1.6,4c0.1,0,0.3,0.1,0.4,0.1C353.7,221.2,366.5,196.8,374.4,164.7"/>
<path fill="#FFFFFF" d="M383,210.7c-14.7-0.3-32.7-8.8-48-23.9c-23.5-23.3-31.4-53.6-17.6-67.5l3.5,3.5c-12,12.1-6.5,41.2,15.1,62.5
	c21.6,21.3,51.3,27.1,63.2,15l3.5,3.5C397.9,208.7,391,210.8,383,210.7"/>
<path fill="#FFFFFF" d="M384.5,114.5c9.2,0,17,2.9,21.9,8.8l-3.7,3.2c-10.8-13.1-40.9-10.4-64.2,8.9s-31.4,48.1-20.6,61.2l-3.7,3.2
	c-12.5-15.1-2-44.6,23.5-65.7C352.9,121.2,370.4,114.5,384.5,114.5"/>
<path fill="#FFFFFF" d="M306,170.1c-2.7-3.5,18.9-15,52.7-20.3c33.8-5.3,55.6-1,55.9,3l4.9-0.7c-2.2-13.2-58.9-4.3-61.3-4
	c-2.4,0.4-59.2,9.5-57.2,22.8l0,0L306,170.1L306,170.1"/>
<path fill="#FFFFFF" d="M334.1,188.8c-2.3,0-4.2-1.9-4.2-4.2c0-2.3,1.9-4.2,4.2-4.2c2.3,0,4.2,1.9,4.2,4.2
	C338.3,186.8,336.4,188.8,334.1,188.8"/>
<path fill="#FFFFFF" d="M333.8,142.7c-2.3,0-4.2-1.9-4.2-4.2s1.9-4.2,4.2-4.2c2.3,0,4.2,1.9,4.2,4.2
	C338,140.8,336.1,142.7,333.8,142.7"/>
<path fill="#FFFFFF" d="M367.3,150.9c-1.9,0-3.3-1.4-3.3-3.3s1.4-3.3,3.3-3.3s3.3,1.4,3.3,3.3S369.2,150.9,367.3,150.9"/>
<path fill="#FFFFFF" d="M374.8,162.3c-2.3,0-4.2-1.9-4.2-4.2s1.9-4.2,4.2-4.2c2.3,0,4.2,1.9,4.2,4.2
	C379,160.4,377.1,162.3,374.8,162.3"/>
<path fill="#FFFFFF" d="M406.4,123.3c12.5,15.1,2.9,45.2-22.6,66.2s-57.3,25.3-69.8,10.2l3.7-3.2c7.3,12.4,39.6,8.8,62.9-10.5
	c23.3-19.3,32.5-49.4,21.9-59.6L406.4,123.3z"/>
<path fill="#FFFFFF" d="M402.8,203.8l-3.5-3.5c12-12.1,4.6-39.7-17-61.1s-49.4-28.4-61.2-16.4l-3.5-3.5c13.8-14,45.1-6.9,68.5,16.3
	C409.5,159,416.6,189.8,402.8,203.8"/>
<path fill="#FFFFFF" d="M362.6,175.8c7.5-1.2,58.9-10.5,56.7-23.8l0,0l-4.9,0.7l0,0c0.1,3.7-19.3,12.8-53.3,18.1
	c-33.8,5.3-53.1,3-55.4-1l-5,0.7C304,184,353.5,177.1,362.6,175.8"/>
<path fill="#FFFFFF" d="M357,89.3V69.6c0-1.7,1.4-3.2,3.2-3.2s3.2,1.4,3.2,3.2v19.7c0,1.7-1.4,3.2-3.2,3.2S357,91,357,89.3"/>
<path fill="#FFFFFF" d="M391.5,99.9c-1.2-0.6-1.9-1.7-1.9-2.9c0-0.4,0.1-0.9,0.3-1.3l8.5-17.7c0.6-1.2,1.7-1.9,2.9-1.9
	c0.4,0,0.9,0.1,1.3,0.3c1.2,0.6,1.9,1.7,1.9,2.9c0,0.4-0.1,0.9-0.3,1.4l-8.5,17.7c-0.6,1.2-1.7,1.9-2.9,1.9
	C392.4,100.2,392,100.1,391.5,99.9"/>
<path fill="#FFFFFF" d="M327.3,99.9c-0.4,0.1-0.9,0.3-1.4,0.3c-1.2,0-2.3-0.7-2.9-1.9l-8.5-17.7c-0.3-0.4-0.3-0.9-0.3-1.4
	c0-1.2,0.7-2.3,1.9-2.9c0.4-0.3,0.9-0.3,1.4-0.3c1.2,0,2.3,0.7,2.9,1.9l8.5,17.7c0.1,0.4,0.3,0.9,0.3,1.3
	C329,98.2,328.5,99.4,327.3,99.9"/>
<path fill="#FFFFFF" d="M414.9,119.7c-0.3-0.6-0.4-1.2-0.4-1.7c0-1,0.6-2.2,1.4-2.7l16.7-10.4c0.6-0.3,1.2-0.4,1.7-0.4
	c1,0,2.2,0.6,2.7,1.4c0.3,0.6,0.4,1.2,0.4,1.7c0,1-0.6,2.2-1.4,2.7l-16.7,10.4c-0.6,0.3-1.2,0.4-1.7,0.4
	C416.4,121.1,415.4,120.7,414.9,119.7"/>
<path fill="#FFFFFF" d="M305,119.7c-0.6,1-1.6,1.4-2.7,1.4c-0.6,0-1.2-0.1-1.7-0.4l-16.7-10.4c-1-0.6-1.6-1.6-1.6-2.7
	c0-0.6,0.1-1.2,0.4-1.7c0.6-1,1.6-1.4,2.7-1.4c0.6,0,1.2,0.1,1.7,0.4l16.8,10.4c1,0.6,1.4,1.6,1.4,2.7
	C305.4,118.5,305.3,119.1,305,119.7"/>
<path fill="#FFFFFF" d="M359.3,179.9c-3.7,0-6.6-3-6.6-6.6c0-3.7,3-6.6,6.6-6.6c3.7,0,6.6,3,6.6,6.6
	C365.9,177,362.9,179.9,359.3,179.9"/>
<path fill="#FFFFFF" d="M391.4,152.8c-4,0-7.2-3.3-7.2-7.2c0-4,3.3-7.2,7.2-7.2c4,0,7.2,3.3,7.2,7.2
	C398.6,149.5,395.4,152.8,391.4,152.8"/>
<path fill="#FFFFFF" d="M383.5,194.7c-4.3,0-7.9-3.6-7.9-7.9c0-4.3,3.6-7.9,7.9-7.9s7.9,3.6,7.9,7.9
	C391.4,191.1,387.8,194.7,383.5,194.7"/>
<path fill="#FFFFFF" d="M349.9,158.5c-5,0-9.1-4-9.1-9.1c0-5,4-9.1,9.1-9.1c5,0,9.1,4,9.1,9.1C359,154.5,355,158.5,349.9,158.5"/>
<path fill="#FFFFFF" d="M347.2,214.7c-6.5-3.6-2.9-33.6,2.9-56.4c5.6-22.8,17-51,23.3-49.8l0.6-4.8c-7.3-2.9-20.9,18.1-28.9,53.9
	c-8.8,38.6-8.1,58,0.7,61.2L347.2,214.7L347.2,214.7"/>
<path fill="#FFFFFF" d="M360.1,106.4c-30.4,0-55,24.6-55,55s24.6,55,55,55s55-24.6,55-55C415.2,131.2,390.5,106.4,360.1,106.4
	 M360.1,221.5c-33.1,0-60-26.9-60-59.9c0-33.1,26.9-59.9,60-59.9s59.9,26.9,59.9,59.9C420.2,194.5,393.3,221.5,360.1,221.5"/>
</svg>
