<?xml version="1.0" encoding="utf-8"?>
<!-- Generator: Adobe Illustrator 18.0.0, SVG Export Plug-In . SVG Version: 6.00 Build 0)  -->
<!DOCTYPE svg PUBLIC "-//W3C//DTD SVG 1.1//EN" "http://www.w3.org/Graphics/SVG/1.1/DTD/svg11.dtd">
<svg version="1.1" id="Layer_1" xmlns="http://www.w3.org/2000/svg" xmlns:xlink="http://www.w3.org/1999/xlink" x="0px" y="0px"
	 viewBox="0 0 200 200" enable-background="new 0 0 200 200" xml:space="preserve">
<path fill="#FF5050" d="M199.7,99.9c0,55.1-44.7,99.9-99.9,99.9C44.7,199.7,0,155,0,99.9C0,44.7,44.7,0,99.9,0
	C155,0,199.7,44.7,199.7,99.9"/>
<path fill="#FFFFFF" d="M99.8,52c-21.2,0-38.9,15-44.2,35.4l-13.1,20.2l12.7,3c1,4.6,2.6,9,4.8,13h42.2
	C99.8,137.7,79.8,143,79.8,143c6,3,12.8,4.8,19.9,4.8c25.3,0,45.8-21.4,45.8-47.9C145.6,73.4,125.1,52,99.8,52 M80.8,96.8
	c-3.6,0-6.6-3-6.6-6.6c0-3.6,3-6.6,6.6-6.6c3.6,0,6.6,3,6.6,6.6C87.4,93.8,84.5,96.8,80.8,96.8"/>
</svg>
